# xmcd
#
# Track frame offsets:
#	150
#	14271
#	28118
#	42216
#	53341
#	67374
#	77970
#	89282
#	102365
#	116513
#	129575
#	140675
#	154888
#	167868
#	182273
#	193359
#	203440
#	213720
#	227300
#	236745
#	251598
#	262383
#	272709
#	283230
#	291590
#	301502
#	309740
#
# Disc length: 4263 seconds
#
# Revision: 1
# Processed by: cddbd v1.5.2PL0 Copyright (c) Steve Scherf et al.
# Submitted via: audiograbber 1.83.01
#
DISCID=9710a51b
DTITLE=Serenaders - Someday We'll Meet Again
DYEAR=1900
DGENRE=
TTITLE0=Tomorrow Night
TTITLE1=Why Dont You Do Right
TTITLE2=Its Funny
TTITLE3=Confession Is Good
TTITLE4=But I Forgive You
TTITLE5=Misery
TTITLE6=Deep In My Heart
TTITLE7=I'll Love You Till My Dying Day
TTITLE8=Please Please Forgive Me
TTITLE9=Baby
TTITLE10=Will She Know
TTITLE11=I Want To Love You Baby
TTITLE12=M-A-Y-B-E-L-L
TTITLE13=Aint Gonna Cry No More
TTITLE14=Someday We'll Meet Again (As The Royals)
TTITLE15=I Want You To Be My Baby (Mambo - as The Royals)
TTITLE16=Really (As The Scooters)
TTITLE17=I Had My Moment
TTITLE18=My Last Affair
TTITLE19=No Happiness
TTITLE20=Rockin Man
TTITLE21=Kola
TTITLE22=Someday We'll Meet Again (As The Scooters)
TTITLE23=I Want You To Be My Baby (As The Royal Jokers)
TTITLE24=Gates Of Gold
TTITLE25=Love Me Now
TTITLE26=Goodbye
EXTD=
EXTT0=
EXTT1=
EXTT2=
EXTT3=
EXTT4=
EXTT5=
EXTT6=
EXTT7=
EXTT8=
EXTT9=
EXTT10=
EXTT11=
EXTT12=
EXTT13=
EXTT14=
EXTT15=
EXTT16=
EXTT17=
EXTT18=
EXTT19=
EXTT20=
EXTT21=
EXTT22=
EXTT23=
EXTT24=
EXTT25=
EXTT26=
PLAYORDER=
